<?xml version="1.0" encoding="UTF-8" standalone="no"?>
<!DOCTYPE svg PUBLIC "-//W3C//DTD SVG 1.1//EN" "http://www.w3.org/Graphics/SVG/1.1/DTD/svg11.dtd">
<svg width="100%" height="100%" viewBox="0 0 223 222" version="1.1" xmlns="http://www.w3.org/2000/svg" xmlns:xlink="http://www.w3.org/1999/xlink" xml:space="preserve" xmlns:serif="http://www.serif.com/" style="fill-rule:evenodd;clip-rule:evenodd;stroke-linejoin:round;stroke-miterlimit:2;">
    <g transform="matrix(1,0,0,1,-1503,0)">
        <g id="collaborative" transform="matrix(0.614592,0,0,0.614592,1859.51,-316.515)">
            <rect x="-579" y="515" width="361" height="361" style="fill:white;"/>
            <g transform="matrix(1.07454e-15,17.5486,-17.5486,1.07454e-15,-82.625,-8306.94)">
                <circle cx="513" cy="18" r="7" style="fill:white;"/>
                <path d="M513,10.227C517.29,10.227 520.773,13.71 520.773,18C520.773,22.29 517.29,25.773 513,25.773C508.71,25.773 505.227,22.29 505.227,18C505.227,13.71 508.71,10.227 513,10.227ZM513,11C509.137,11 506,14.137 506,18C506,21.863 509.137,25 513,25C516.863,25 520,21.863 520,18C520,14.137 516.863,11 513,11Z" style="fill:rgb(113,172,71);"/>
            </g>
            <g transform="matrix(2.16084e-16,3.52892,-3.52892,2.16084e-16,-334.761,-1230.11)">
                <circle cx="513" cy="18" r="7" style="fill:rgb(113,172,71);"/>
                <path d="M513,7.158C518.984,7.158 523.842,12.016 523.842,18C523.842,23.984 518.984,28.842 513,28.842C507.016,28.842 502.158,23.984 502.158,18C502.158,12.016 507.016,7.158 513,7.158ZM513,11C509.137,11 506,14.137 506,18C506,21.863 509.137,25 513,25C516.863,25 520,21.863 520,18C520,14.137 516.863,11 513,11Z" style="fill:white;"/>
            </g>
            <g transform="matrix(2.16084e-16,3.52892,-3.52892,2.16084e-16,-334.813,-999.556)">
                <circle cx="513" cy="18" r="7" style="fill:rgb(113,172,71);"/>
                <path d="M513,7.158C518.984,7.158 523.842,12.016 523.842,18C523.842,23.984 518.984,28.842 513,28.842C507.016,28.842 502.158,23.984 502.158,18C502.158,12.016 507.016,7.158 513,7.158ZM513,11C509.137,11 506,14.137 506,18C506,21.863 509.137,25 513,25C516.863,25 520,21.863 520,18C520,14.137 516.863,11 513,11Z" style="fill:white;"/>
            </g>
            <g transform="matrix(2.16084e-16,3.52892,-3.52892,2.16084e-16,-235.654,-1056.67)">
                <circle cx="513" cy="18" r="7" style="fill:rgb(113,172,71);"/>
                <path d="M513,7.158C518.984,7.158 523.842,12.016 523.842,18C523.842,23.984 518.984,28.842 513,28.842C507.016,28.842 502.158,23.984 502.158,18C502.158,12.016 507.016,7.158 513,7.158ZM513,11C509.137,11 506,14.137 506,18C506,21.863 509.137,25 513,25C516.863,25 520,21.863 520,18C520,14.137 516.863,11 513,11Z" style="fill:white;"/>
            </g>
            <g transform="matrix(2.16084e-16,3.52892,-3.52892,2.16084e-16,-235.654,-1175.34)">
                <circle cx="513" cy="18" r="7" style="fill:rgb(113,172,71);"/>
                <path d="M513,7.158C518.984,7.158 523.842,12.016 523.842,18C523.842,23.984 518.984,28.842 513,28.842C507.016,28.842 502.158,23.984 502.158,18C502.158,12.016 507.016,7.158 513,7.158ZM513,11C509.137,11 506,14.137 506,18C506,21.863 509.137,25 513,25C516.863,25 520,21.863 520,18C520,14.137 516.863,11 513,11Z" style="fill:white;"/>
            </g>
            <g transform="matrix(2.16084e-16,3.52892,-3.52892,2.16084e-16,-438.905,-1175.34)">
                <circle cx="513" cy="18" r="7" style="fill:rgb(113,172,71);"/>
                <path d="M513,7.158C518.984,7.158 523.842,12.016 523.842,18C523.842,23.984 518.984,28.842 513,28.842C507.016,28.842 502.158,23.984 502.158,18C502.158,12.016 507.016,7.158 513,7.158ZM513,11C509.137,11 506,14.137 506,18C506,21.863 509.137,25 513,25C516.863,25 520,21.863 520,18C520,14.137 516.863,11 513,11Z" style="fill:white;"/>
            </g>
            <g transform="matrix(2.16084e-16,3.52892,-3.52892,2.16084e-16,-438.905,-1056.67)">
                <circle cx="513" cy="18" r="7" style="fill:rgb(113,172,71);"/>
                <path d="M513,7.158C518.984,7.158 523.842,12.016 523.842,18C523.842,23.984 518.984,28.842 513,28.842C507.016,28.842 502.158,23.984 502.158,18C502.158,12.016 507.016,7.158 513,7.158ZM513,11C509.137,11 506,14.137 506,18C506,21.863 509.137,25 513,25C516.863,25 520,21.863 520,18C520,14.137 516.863,11 513,11Z" style="fill:white;"/>
            </g>
        </g>
    </g>
</svg>
