<?xml version="1.0" encoding="UTF-8" standalone="no"?>
<!DOCTYPE svg PUBLIC "-//W3C//DTD SVG 1.1//EN" "http://www.w3.org/Graphics/SVG/1.1/DTD/svg11.dtd">
<svg width="100%" height="100%" viewBox="0 0 223 222" version="1.1" xmlns="http://www.w3.org/2000/svg" xmlns:xlink="http://www.w3.org/1999/xlink" xml:space="preserve" xmlns:serif="http://www.serif.com/" style="fill-rule:evenodd;clip-rule:evenodd;stroke-linecap:round;stroke-linejoin:round;stroke-miterlimit:6;">
    <g transform="matrix(1,0,0,1,-1212,0)">
        <g id="software-engineering" transform="matrix(0.614592,0,0,0.614592,1568.66,-316.515)">
            <rect x="-579" y="515" width="361" height="361" style="fill:white;"/>
            <clipPath id="_clip1">
                <rect x="-579" y="515" width="361" height="361"/>
            </clipPath>
            <g clip-path="url(#_clip1)">
                <g transform="matrix(1,0,0,1,-8.92501,0)">
                    <g transform="matrix(1,0,0,1,10.0278,-12.6518)">
                        <path d="M-363.403,652.973L-253.14,707.958L-363.403,652.973Z" style="fill:rgb(113,172,71);stroke:rgb(113,172,71);stroke-width:13.56px;"/>
                    </g>
                    <g transform="matrix(-1,0,0,1,-606.515,42.4436)">
                        <path d="M-363.403,652.973L-253.14,707.958L-363.403,652.973Z" style="fill:rgb(113,172,71);stroke:rgb(113,172,71);stroke-width:13.56px;stroke-linecap:butt;stroke-linejoin:miter;"/>
                    </g>
                </g>
                <g transform="matrix(1,0,0,1,21.1583,0)">
                    <g transform="matrix(-1,0,0,1,-819.261,-12.6518)">
                        <path d="M-363.403,652.973L-253.14,707.958L-363.403,652.973Z" style="fill:rgb(113,172,71);stroke:rgb(113,172,71);stroke-width:13.56px;stroke-linecap:butt;stroke-linejoin:miter;"/>
                    </g>
                    <g transform="matrix(1,0,0,1,-202.718,42.4436)">
                        <path d="M-363.403,652.973L-253.14,707.958L-363.403,652.973Z" style="fill:rgb(113,172,71);stroke:rgb(113,172,71);stroke-width:13.56px;stroke-linejoin:miter;"/>
                    </g>
                </g>
                <g transform="matrix(2.15079,0.864394,-0.864394,2.15079,-1275.01,143.997)">
                    <path d="M448.169,127.307C451.8,129.96 454.16,134.25 454.16,139.087C454.16,144.94 450.704,149.992 445.723,152.312L448.806,142.821L439.58,136.117L430.354,142.821L433.437,152.312C428.456,149.992 425,144.94 425,139.087C425,134.25 427.36,129.96 430.991,127.307L430.991,32.199C427.36,29.547 425,25.257 425,20.42C425,14.567 428.456,9.515 433.437,7.195L430.354,16.686L439.58,23.39L448.806,16.686L445.723,7.195C450.704,9.515 454.16,14.567 454.16,20.42C454.16,25.257 451.8,29.547 448.169,32.199L448.169,127.307Z" style="fill:rgb(113,172,71);"/>
                    <path d="M448.169,127.307C451.8,129.96 454.16,134.25 454.16,139.087C454.16,144.94 450.704,149.992 445.723,152.312L448.806,142.821L439.58,136.117L430.354,142.821L433.437,152.312C428.456,149.992 425,144.94 425,139.087C425,134.25 427.36,129.96 430.991,127.307L430.991,32.199C427.36,29.547 425,25.257 425,20.42C425,14.567 428.456,9.515 433.437,7.195L430.354,16.686L439.58,23.39L448.806,16.686L445.723,7.195C450.704,9.515 454.16,14.567 454.16,20.42C454.16,25.257 451.8,29.547 448.169,32.199L448.169,127.307ZM446.707,31.457L447.306,31.019C450.573,28.632 452.698,24.772 452.698,20.42C452.698,16.577 451.041,13.118 448.405,10.718L450.525,17.245L439.58,25.197L428.634,17.245C428.634,17.245 430.755,10.718 430.756,10.718C428.119,13.118 426.462,16.577 426.462,20.42C426.462,24.772 428.587,28.632 431.854,31.019L432.453,31.457L432.453,128.05L431.854,128.488C428.587,130.875 426.462,134.735 426.462,139.087C426.462,142.93 428.119,146.389 430.755,148.789L428.634,142.262L439.58,134.31L450.525,142.262C450.525,142.262 448.405,148.789 448.404,148.789C451.041,146.389 452.698,142.93 452.698,139.087C452.698,134.735 450.573,130.875 447.306,128.488L446.707,128.05L446.707,31.457Z" style="fill:rgb(113,172,71);"/>
                </g>
                <g transform="matrix(5.01389,0,0,5.01389,-1813.77,515)">
                    <rect x="246.271" y="0" width="72" height="72" style="fill:none;"/>
                </g>
            </g>
        </g>
    </g>
</svg>
