<?xml version="1.0" encoding="UTF-8" standalone="no"?>
<!DOCTYPE svg PUBLIC "-//W3C//DTD SVG 1.1//EN" "http://www.w3.org/Graphics/SVG/1.1/DTD/svg11.dtd">
<svg width="100%" height="100%" viewBox="0 0 223 222" version="1.1" xmlns="http://www.w3.org/2000/svg" xmlns:xlink="http://www.w3.org/1999/xlink" xml:space="preserve" xmlns:serif="http://www.serif.com/" style="fill-rule:evenodd;clip-rule:evenodd;stroke-linecap:round;stroke-linejoin:round;stroke-miterlimit:6;">
    <g transform="matrix(1,0,0,1,-758,0)">
        <g id="energy" transform="matrix(0.614592,0,0,0.614592,1114.73,-316.515)">
            <rect x="-579" y="515" width="361" height="361" style="fill:white;"/>
            <g transform="matrix(3.36711,0.76664,-1.17394,5.15598,-1297.49,293.742)">
                <path d="M275.358,33.088L298.352,25.425L278.094,68.738L280.993,40.03L258,47.693L278.258,4.379L275.358,33.088Z" style="fill:white;stroke:rgb(113,172,71);stroke-width:3.04px;"/>
            </g>
            <g transform="matrix(3.36711,0.76664,-1.17394,5.15598,-1297.49,293.742)">
                <path d="M258,47.693L298.352,25.425L278.094,68.738L280.993,40.03L258,47.693Z" style="fill:rgb(113,172,71);stroke:rgb(113,172,71);stroke-width:0.76px;"/>
            </g>
            <g transform="matrix(5.01389,0,0,5.01389,-1813.77,515)">
                <rect x="246.271" y="0" width="72" height="72" style="fill:none;"/>
            </g>
            <g transform="matrix(5.01389,0,0,5.01389,-1813.77,515)">
                <rect x="246.271" y="0" width="72" height="72" style="fill:none;"/>
            </g>
        </g>
    </g>
</svg>
