<?xml version="1.0" encoding="UTF-8" standalone="no"?>
<!DOCTYPE svg PUBLIC "-//W3C//DTD SVG 1.1//EN" "http://www.w3.org/Graphics/SVG/1.1/DTD/svg11.dtd">
<svg width="100%" height="100%" viewBox="0 0 223 222" version="1.1" xmlns="http://www.w3.org/2000/svg" xmlns:xlink="http://www.w3.org/1999/xlink" xml:space="preserve" xmlns:serif="http://www.serif.com/" style="fill-rule:evenodd;clip-rule:evenodd;stroke-linecap:round;stroke-linejoin:round;">
    <g transform="matrix(1,0,0,1,-2272,0)">
        <g id="kpi" transform="matrix(0.614592,0,0,0.614592,2628.38,-316.515)">
            <rect x="-579" y="515" width="361" height="361" style="fill:white;"/>
            <clipPath id="_clip1">
                <rect x="-579" y="515" width="361" height="361"/>
            </clipPath>
            <g clip-path="url(#_clip1)">
                <g transform="matrix(5.01389,0,0,5.01389,-1813.77,515)">
                    <rect x="246.271" y="0" width="72" height="72" style="fill:none;"/>
                </g>
                <g transform="matrix(0.432056,0,0,0.432056,-538.404,571.156)">
                    <path d="M533.333,533.333C588.484,478.182 628.571,407.967 628.571,323.81C628.571,155.494 492.125,19.048 323.81,19.048C155.494,19.048 19.048,155.494 19.048,323.81C19.048,407.967 59.135,478.182 114.286,533.333" style="fill:none;stroke:rgb(113,172,71);stroke-width:24.18px;"/>
                </g>
                <g transform="matrix(2.64558e-17,0.432056,-0.432056,2.64558e-17,-258.596,581.184)">
                    <path d="M323.81,323.81L144.513,144.513" style="fill:none;stroke:rgb(113,172,71);stroke-width:24.18px;"/>
                </g>
                <g transform="matrix(0.432056,0,0,0.432056,-538.404,586.198)">
                    <circle cx="323.81" cy="323.81" r="57.143" style="fill:rgb(113,172,71);stroke:rgb(113,172,71);stroke-width:3.77px;stroke-linecap:butt;stroke-miterlimit:2;"/>
                </g>
                <g transform="matrix(5.01389,0,0,5.01389,-1813.77,515)">
                    <rect x="246.271" y="0" width="72" height="72" style="fill:none;"/>
                </g>
            </g>
        </g>
    </g>
</svg>
