<?xml version="1.0" encoding="UTF-8" standalone="no"?>
<!DOCTYPE svg PUBLIC "-//W3C//DTD SVG 1.1//EN" "http://www.w3.org/Graphics/SVG/1.1/DTD/svg11.dtd">
<svg width="100%" height="100%" viewBox="0 0 223 222" version="1.1" xmlns="http://www.w3.org/2000/svg" xmlns:xlink="http://www.w3.org/1999/xlink" xml:space="preserve" xmlns:serif="http://www.serif.com/" style="fill-rule:evenodd;clip-rule:evenodd;stroke-linejoin:round;stroke-miterlimit:2;">
    <g transform="matrix(1,0,0,1,-2513,0)">
        <g id="interactive-dashboards" transform="matrix(0.614592,0,0,0.614592,2869.15,-316.515)">
            <rect x="-579" y="515" width="361" height="361" style="fill:white;"/>
            <g transform="matrix(3.57054e-16,5.82329,-12.657,7.73975e-16,-47.9756,-4273.79)">
                <path d="M851.612,16.492L851.612,38.896C851.612,38.953 851.51,39 851.386,39L829.226,39C829.101,39 829,38.953 829,38.896L829,16.492C829,16.435 829.101,16.388 829.226,16.388L851.386,16.388C851.51,16.388 851.612,16.435 851.612,16.492ZM831.328,37.929L849.283,37.929L849.283,17.46L831.328,17.46L831.328,37.929Z" style="fill:rgb(113,172,71);"/>
            </g>
            <g transform="matrix(3.57054e-16,5.82329,-5.83114,3.56574e-16,-314.184,-4121.9)">
                <path d="M851.612,16.614L851.612,38.774C851.612,38.899 851.51,39 851.386,39L829.226,39C829.101,39 829,38.899 829,38.774L829,16.614C829,16.489 829.101,16.388 829.226,16.388L851.386,16.388C851.51,16.388 851.612,16.489 851.612,16.614Z" style="fill:rgb(113,172,71);"/>
                <path d="M851.612,16.614L851.612,38.774C851.612,38.899 851.51,39 851.386,39L829.226,39C829.101,39 829,38.899 829,38.774L829,16.614C829,16.489 829.101,16.388 829.226,16.388L851.386,16.388C851.51,16.388 851.612,16.489 851.612,16.614ZM830.164,37.837L850.448,37.837L850.448,17.551L830.164,17.551L830.164,37.837Z" style="fill:rgb(113,172,71);"/>
            </g>
            <g transform="matrix(3.57054e-16,5.82329,-5.83114,3.56574e-16,-159.84,-4121.9)">
                <path d="M851.612,16.614L851.612,38.774C851.612,38.899 851.51,39 851.386,39L829.226,39C829.101,39 829,38.899 829,38.774L829,16.614C829,16.489 829.101,16.388 829.226,16.388L851.386,16.388C851.51,16.388 851.612,16.489 851.612,16.614ZM831.328,36.675L849.283,36.675L849.283,18.714L831.328,18.714L831.328,36.675Z" style="fill:rgb(113,172,71);"/>
            </g>
        </g>
    </g>
</svg>
