<?xml version="1.0" encoding="UTF-8" standalone="no"?>
<!DOCTYPE svg PUBLIC "-//W3C//DTD SVG 1.1//EN" "http://www.w3.org/Graphics/SVG/1.1/DTD/svg11.dtd">
<svg width="100%" height="100%" viewBox="0 0 223 222" version="1.1" xmlns="http://www.w3.org/2000/svg" xmlns:xlink="http://www.w3.org/1999/xlink" xml:space="preserve" xmlns:serif="http://www.serif.com/" style="fill-rule:evenodd;clip-rule:evenodd;stroke-linejoin:round;stroke-miterlimit:2;">
    <g transform="matrix(1,0,0,1,-2756,0)">
        <g id="interactive-dashboards" transform="matrix(0.614592,0,0,0.614592,3112.59,-316.515)">
            <rect x="-579" y="515" width="361" height="361" style="fill:white;"/>
            <clipPath id="_clip1">
                <rect x="-579" y="515" width="361" height="361"/>
            </clipPath>
            <g clip-path="url(#_clip1)">
                <g transform="matrix(-5.01389,-6.14024e-16,6.14024e-16,-5.01389,1016.77,876)">
                    <rect x="246.271" y="0" width="72" height="72" style="fill:none;"/>
                </g>
                <g transform="matrix(1.68941e-16,-2.76274,2.76646,1.69624e-16,-433.404,2906.49)">
                    <path d="M851.612,16.614L851.612,38.774C851.612,38.899 851.51,39 851.386,39L829.226,39C829.101,39 829,38.899 829,38.774L829,16.614C829,16.489 829.101,16.388 829.226,16.388L851.386,16.388C851.51,16.388 851.612,16.489 851.612,16.614Z" style="fill:rgb(113,172,71);"/>
                    <path d="M851.612,16.614L851.612,38.774C851.612,38.899 851.51,39 851.386,39L829.226,39C829.101,39 829,38.899 829,38.774L829,16.614C829,16.489 829.101,16.388 829.226,16.388L851.386,16.388C851.51,16.388 851.612,16.489 851.612,16.614ZM849.158,18.839L831.454,18.839L831.454,36.549L849.158,36.549L849.158,18.839Z" style="fill:rgb(113,172,71);"/>
                </g>
                <g transform="matrix(1.68941e-16,-2.76274,2.76646,1.69624e-16,-433.404,2978.56)">
                    <path d="M851.612,16.614L851.612,38.774C851.612,38.899 851.51,39 851.386,39L829.226,39C829.101,39 829,38.899 829,38.774L829,16.614C829,16.489 829.101,16.388 829.226,16.388L851.386,16.388C851.51,16.388 851.612,16.489 851.612,16.614Z" style="fill:rgb(113,172,71);"/>
                    <path d="M851.612,16.614L851.612,38.774C851.612,38.899 851.51,39 851.386,39L829.226,39C829.101,39 829,38.899 829,38.774L829,16.614C829,16.489 829.101,16.388 829.226,16.388L851.386,16.388C851.51,16.388 851.612,16.489 851.612,16.614ZM849.158,18.839L831.454,18.839L831.454,36.549L849.158,36.549L849.158,18.839Z" style="fill:rgb(113,172,71);"/>
                </g>
                <g transform="matrix(1.68941e-16,-2.76274,2.76646,1.69624e-16,-363.294,2906.49)">
                    <path d="M851.612,16.614L851.612,38.774C851.612,38.899 851.51,39 851.386,39L829.226,39C829.101,39 829,38.899 829,38.774L829,16.614C829,16.489 829.101,16.388 829.226,16.388L851.386,16.388C851.51,16.388 851.612,16.489 851.612,16.614Z" style="fill:rgb(113,172,71);"/>
                    <path d="M851.612,16.614L851.612,38.774C851.612,38.899 851.51,39 851.386,39L829.226,39C829.101,39 829,38.899 829,38.774L829,16.614C829,16.489 829.101,16.388 829.226,16.388L851.386,16.388C851.51,16.388 851.612,16.489 851.612,16.614ZM849.158,18.839L831.454,18.839L831.454,36.549L849.158,36.549L849.158,18.839Z" style="fill:rgb(113,172,71);"/>
                </g>
                <g transform="matrix(3.58771e-16,-5.86707,5.86707,3.59739e-16,-484.218,5701.09)">
                    <path d="M851.612,16.614L851.612,38.774C851.612,38.899 851.51,39 851.386,39L829.226,39C829.101,39 829,38.899 829,38.774L829,16.614C829,16.49 829.101,16.388 829.226,16.388L851.386,16.388C851.51,16.388 851.612,16.49 851.612,16.614ZM849.301,18.699L831.311,18.699L831.311,36.689L849.301,36.689L849.301,18.699Z" style="fill:rgb(113,172,71);"/>
                </g>
                <g transform="matrix(7.67402e-16,-12.5407,6.00483,3.68724e-16,-643.935,11233.5)">
                    <path d="M851.612,16.614L851.612,38.774C851.612,38.899 851.563,39 851.503,39L829.108,39C829.049,39 829,38.899 829,38.774L829,16.614C829,16.49 829.049,16.388 829.108,16.388L851.503,16.388C851.563,16.388 851.612,16.49 851.612,16.614ZM850.531,18.646L830.081,18.646L830.081,36.742L850.531,36.742L850.531,18.646Z" style="fill:rgb(113,172,71);"/>
                </g>
                <g transform="matrix(1.68941e-16,-2.76274,2.76646,1.69624e-16,-363.294,2978.56)">
                    <path d="M851.612,16.614L851.612,38.774C851.612,38.899 851.51,39 851.386,39L829.226,39C829.101,39 829,38.899 829,38.774L829,16.614C829,16.489 829.101,16.388 829.226,16.388L851.386,16.388C851.51,16.388 851.612,16.489 851.612,16.614Z" style="fill:rgb(113,172,71);"/>
                    <path d="M851.612,16.614L851.612,38.774C851.612,38.899 851.51,39 851.386,39L829.226,39C829.101,39 829,38.899 829,38.774L829,16.614C829,16.489 829.101,16.388 829.226,16.388L851.386,16.388C851.51,16.388 851.612,16.489 851.612,16.614ZM849.158,18.839L831.454,18.839L831.454,36.549L849.158,36.549L849.158,18.839Z" style="fill:rgb(113,172,71);"/>
                </g>
                <g transform="matrix(-5.01389,-6.14024e-16,6.14024e-16,-5.01389,1016.77,876)">
                    <rect x="246.271" y="0" width="72" height="72" style="fill:none;"/>
                </g>
            </g>
        </g>
    </g>
</svg>
