<?xml version="1.0" encoding="UTF-8" standalone="no"?>
<!DOCTYPE svg PUBLIC "-//W3C//DTD SVG 1.1//EN" "http://www.w3.org/Graphics/SVG/1.1/DTD/svg11.dtd">
<svg width="100%" height="100%" viewBox="0 0 223 222" version="1.1" xmlns="http://www.w3.org/2000/svg" xmlns:xlink="http://www.w3.org/1999/xlink" xml:space="preserve" xmlns:serif="http://www.serif.com/" style="fill-rule:evenodd;clip-rule:evenodd;stroke-linejoin:round;stroke-miterlimit:2;">
    <g transform="matrix(1,0,0,1,-453,0)">
        <g id="agrifood" transform="matrix(0.614592,0,0,0.614592,809.294,-316.515)">
            <rect x="-579" y="515" width="361" height="361" style="fill:white;"/>
            <clipPath id="_clip1">
                <rect x="-579" y="515" width="361" height="361"/>
            </clipPath>
            <g clip-path="url(#_clip1)">
                <g id="path2360" transform="matrix(0.403551,0.403551,-0.403551,0.403551,-395.711,526.651)">
                    <path d="M7.219,59.751C10.416,49.126 19.093,40.243 29.76,37.09C32.186,28.3 38.482,20.762 46.417,16.585C48.423,15.529 50.572,14.64 52.826,13.978C56.286,2.328 66.416,-7.197 78.501,-9.521C87.733,-11.297 98.542,-9.581 108.078,-0.046L210.249,102.138C224.031,115.92 229.465,139.56 222.755,160.018L393.035,330.298C417.739,355.002 411.65,384.25 394.813,401.088C377.975,417.925 348.727,424.014 324.023,399.31C324.023,399.31 154.237,229.524 154.238,229.524C134.68,236.973 111.464,233.41 93.674,215.62L-7.045,114.901C-25.945,96.001 -16.719,71.725 0.348,62.568C2.5,61.414 4.805,60.453 7.219,59.751ZM193.449,118.937L91.278,16.754C82.275,7.751 70.242,20.462 78.567,28.787L153.613,103.833L142.83,114.617L68.123,39.91C59.031,30.818 47.526,43.001 55.94,51.415L130.986,126.461L120.026,137.421L45.23,62.625C36.315,53.711 24.635,66.426 32.694,74.484L107.828,149.619L97.221,160.225L22.764,85.768C13.32,76.323 0.987,89.334 9.754,98.101L110.473,198.82C124.866,213.212 145.327,211.961 157.8,199.487L340.823,382.51C366.802,408.489 402.214,373.076 376.235,347.097L193.213,164.075C206.021,151.266 204.292,129.78 193.449,118.937Z" style="fill:rgb(113,172,71);"/>
                </g>
                <g transform="matrix(-3.19847,-2.0591,1.13775,-1.76731,201.553,1226.56)">
                    <path d="M189,6.002L189,6C189,6 188.999,6.001 188.999,6.001C188.998,6.001 188.998,6.001 188.997,6L188.998,6.002C175.618,19.384 192.299,55.357 192.535,55.029C192.816,55.32 204.161,17.325 189,6.002Z" style="fill:rgb(113,172,71);"/>
                    <path d="M189,6.002C204.161,17.325 192.816,55.32 192.535,55.029C192.299,55.357 175.618,19.384 188.998,6.002L188.997,6L188.999,6.001L189,6L189,6.002ZM189.057,7.801C184.486,12.762 184.1,20.828 185.256,28.722C186.515,37.315 189.57,45.75 191.503,50.367C191.81,51.102 192.125,51.8 192.389,52.367C192.555,51.808 192.744,51.141 192.923,50.447C194.167,45.623 195.971,36.875 195.984,28.231C195.996,20.127 194.391,12.105 189.057,7.801Z" style="fill:rgb(113,172,71);"/>
                </g>
                <g transform="matrix(2.50694,-4.34216,-2.39925,-1.38521,-855.38,1673.2)">
                    <path d="M189,6.002L189,6C189,6 188.999,6.001 188.999,6.001C188.998,6.001 188.998,6.001 188.997,6L188.998,6.002C175.618,19.384 192.299,55.357 192.535,55.029C192.816,55.32 204.161,17.325 189,6.002Z" style="fill:rgb(113,172,71);"/>
                    <path d="M189,6.002L189,6L188.999,6.001L188.997,6L188.998,6.002C175.618,19.384 192.299,55.357 192.535,55.029C192.816,55.32 204.161,17.325 189,6.002ZM189.043,7.364C194.554,11.723 196.211,19.933 196.199,28.232C196.186,36.94 194.371,45.753 193.118,50.612C192.878,51.542 192.619,52.423 192.42,53.073C192.137,52.473 191.763,51.635 191.331,50.602C189.387,45.957 186.315,37.468 185.049,28.822C183.859,20.705 184.283,12.42 189.043,7.364Z" style="fill:rgb(113,172,71);"/>
                </g>
                <g transform="matrix(-2.50694,-4.34216,2.39925,-1.38521,63.394,1673.2)">
                    <path d="M189,6.002L189,6C189,6 188.999,6.001 188.999,6.001C188.998,6.001 188.998,6.001 188.997,6L188.998,6.002C175.618,19.384 192.299,55.357 192.535,55.029C192.816,55.32 204.161,17.325 189,6.002Z" style="fill:rgb(113,172,71);"/>
                    <path d="M189,6.002C204.161,17.325 192.816,55.32 192.535,55.029C192.299,55.357 175.618,19.384 188.998,6.002L188.997,6L188.999,6.001L189,6L189,6.002ZM189.043,7.364C184.283,12.42 183.859,20.705 185.049,28.822C186.315,37.468 189.387,45.957 191.331,50.602C191.763,51.635 192.137,52.473 192.42,53.073C192.619,52.423 192.878,51.542 193.118,50.612C194.371,45.753 196.186,36.94 196.199,28.232C196.211,19.933 194.554,11.723 189.043,7.364Z" style="fill:rgb(113,172,71);"/>
                </g>
                <g transform="matrix(5.01389,0,0,5.01389,-1316.8,515)">
                    <rect x="147.151" y="0" width="72" height="72" style="fill:none;"/>
                </g>
            </g>
        </g>
    </g>
</svg>
