<?xml version="1.0" encoding="UTF-8" standalone="no"?>
<!DOCTYPE svg PUBLIC "-//W3C//DTD SVG 1.1//EN" "http://www.w3.org/Graphics/SVG/1.1/DTD/svg11.dtd">
<svg width="100%" height="100%" viewBox="0 0 223 222" version="1.1" xmlns="http://www.w3.org/2000/svg" xmlns:xlink="http://www.w3.org/1999/xlink" xml:space="preserve" xmlns:serif="http://www.serif.com/" style="fill-rule:evenodd;clip-rule:evenodd;stroke-linecap:square;stroke-linejoin:round;stroke-miterlimit:1.5;">
    <g transform="matrix(1,0,0,1,-227,0)">
        <g id="smart-building" transform="matrix(0.614592,0,0,0.614592,583.815,-316.515)">
            <rect x="-579" y="515" width="361" height="361" style="fill:white;"/>
            <clipPath id="_clip1">
                <rect x="-579" y="515" width="361" height="361"/>
            </clipPath>
            <g clip-path="url(#_clip1)">
                <g transform="matrix(5.01389,0,0,5.01389,-949.922,515)">
                    <rect x="73.979" y="0" width="72" height="72" style="fill:none;"/>
                </g>
                <g transform="matrix(3.07012e-16,-5.01389,5.01389,3.07012e-16,-649.143,925.462)">
                    <path d="M21.601,30.174C21.048,30.174 20.601,30.621 20.601,31.174L20.601,52.686C20.601,53.238 21.048,53.686 21.601,53.686L70.601,53.686C71.153,53.686 71.601,53.238 71.601,52.686L71.601,31.174C71.601,30.621 71.153,30.174 70.601,30.174L21.601,30.174Z" style="fill:white;fill-rule:nonzero;stroke:rgb(113,172,71);stroke-width:2.7px;"/>
                </g>
                <g transform="matrix(3.07012e-16,-5.01389,5.01389,3.07012e-16,-569.542,945.373)">
                    <path d="M48.03,53.686L21.601,53.686C21.048,53.686 20.601,53.238 20.601,52.686L20.601,31.174C20.601,30.621 21.048,30.174 21.601,30.174L48.03,30.174L48.03,53.686Z" style="fill:white;stroke:rgb(113,172,71);stroke-width:2.7px;"/>
                </g>
                <g transform="matrix(5.01389,0,0,5.01389,-419.478,579.352)">
                    <path d="M6.35,15.35L4.25,13.2C5.283,12.167 6.467,11.375 7.8,10.825C9.133,10.275 10.533,10 12,10C13.467,10 14.871,10.279 16.213,10.838C17.555,11.397 18.734,12.201 19.75,13.25L17.65,15.35C16.9,14.6 16.037,14.021 15.062,13.613C14.087,13.205 13.066,13.001 12,13C10.933,13 9.913,13.204 8.938,13.613C7.963,14.022 7.101,14.601 6.35,15.35ZM2.1,11.1L0,9C1.583,7.383 3.413,6.146 5.488,5.287C7.563,4.428 9.734,3.999 12,4C14.267,4 16.438,4.429 18.513,5.288C20.588,6.147 22.417,7.384 24,9L21.9,11.1C20.583,9.783 19.071,8.771 17.362,8.063C15.653,7.355 13.866,7.001 12,7C10.133,7 8.346,7.354 6.637,8.063C4.928,8.772 3.416,9.784 2.1,11.1ZM12,21L8.475,17.45C8.942,16.983 9.479,16.625 10.088,16.375C10.697,16.125 11.334,16 12,16C12.667,16 13.304,16.125 13.913,16.375C14.522,16.625 15.059,16.983 15.525,17.45L12,21Z" style="fill:rgb(113,172,71);fill-rule:nonzero;"/>
                </g>
                <g transform="matrix(5.01389,0,0,5.01389,-949.922,518.833)">
                    <rect x="96" y="6" width="2" height="7" style="fill:rgb(113,172,71);"/>
                    <path d="M98.676,6L98.676,13C98.676,13.373 98.373,13.676 98,13.676L96,13.676C95.627,13.676 95.324,13.373 95.324,13L95.324,6C95.324,5.627 95.627,5.324 96,5.324L98,5.324C98.373,5.324 98.676,5.627 98.676,6ZM98,6L96,6L96,13L98,13L98,6Z" style="fill:rgb(113,172,71);"/>
                </g>
                <g transform="matrix(5.01389,0,0,5.01389,-818.84,655.853)">
                    <rect x="96" y="6" width="2" height="7" style="fill:rgb(113,172,71);"/>
                    <path d="M98.676,6L98.676,13C98.676,13.373 98.373,13.676 98,13.676L96,13.676C95.627,13.676 95.324,13.373 95.324,13L95.324,6C95.324,5.627 95.627,5.324 96,5.324L98,5.324C98.373,5.324 98.676,5.627 98.676,6ZM98,6L96,6L96,13L98,13L98,6Z" style="fill:rgb(113,172,71);"/>
                </g>
            </g>
        </g>
    </g>
</svg>
